PathFileType	4	(X/Y/Z)	Patient5_TMGait_0pt45_1_right_09.trc.trc
DataRate	CameraRate	NumFrames	NumMarkers	Units	OrigDataRate	OrigDataStartFrame	OrigNumFrames
58.091286307054	58.091286307054	4	32	mm	58.091286307054	89	       141
Frame#	Time	R.ASIS			L.ASIS			Chest			R.Shoulder			Neck			L.Shoulder			L.Elbow			L.Wrist			R.Elbow			R.Wrist			L.Thigh.Superior			L.Thigh.Lateral			L.Thigh.Inferior			L.Patella			L.Shank.Superior			L.Shank.Lateral			L.Shank.Inferior			L.Heel			L.Midfoot.Lateral			L.Midfoot.Superior			L.Toe			R.Thigh.Superior			R.Thigh.Lateral			R.Thigh.Inferior			R.Patella			R.Shank.Superior			R.Shank.Lateral			R.Shank.Inferior			R.Heel			R.Midfoot.Lateral			R.Midfoot.Superior			R.Toe			
		X1	Y1	Z1	X2	Y2	Z2	X3	Y3	Z3	X4	Y4	Z4	X5	Y5	Z5	X6	Y6	Z6	X7	Y7	Z7	X8	Y8	Z8	X9	Y9	Z9	X10	Y10	Z10	X11	Y11	Z11	X12	Y12	Z12	X13	Y13	Z13	X14	Y14	Z14	X15	Y15	Z15	X16	Y16	Z16	X17	Y17	Z17	X18	Y18	Z18	X19	Y19	Z19	X20	Y20	Z20	X21	Y21	Z21	X22	Y22	Z22	X23	Y23	Z23	X24	Y24	Z24	X25	Y25	Z25	X26	Y26	Z26	X27	Y27	Z27	X28	Y28	Z28	X29	Y29	Z29	X30	Y30	Z30	X31	Y31	Z31	X32	Y32	Z32	

89	16.104857142857	1041.887767660818	1015.404454927779	553.129731458300	1080.186633607530	963.185185921634	316.645136903380	1146.304230392875	1450.372761763226	422.183479353345	1011.343373403041	1526.203316816811	555.886893978051	1035.584197360645	1575.304439848710	369.346159569045	1140.134212394966	1507.846030108856	216.350872370225	1145.729049572438	1180.141670419066	94.631898242402	1299.672626328531	942.073888579451	152.561718044466	875.330814336320	1219.147199135770	682.244574245105	1086.954679844868	1019.964507253448	669.363520005914	1093.677681279756	750.150044268391	316.999976378116	1021.553725161276	679.614312016875	276.081747240344	1091.828657162289	623.171403105737	343.355330080182	1091.059597083593	506.795648796727	353.033026649655	1041.985514528791	403.856916086819	374.631392168535	977.212600931765	334.070090513413	299.969513569744	1010.201837352139	282.683819613405	389.258162312300	875.463832102549	49.757296540113	398.330398916566	966.549198260052	27.277063268860	340.686365042327	1062.607783500849	89.087190959763	388.364344261360	1169.020069278133	44.876751314416	398.573666240063	1065.317972320867	794.605766596758	609.714810759366	980.977627011981	721.872835313028	664.139897214509	1074.085474242062	664.921524901976	613.089973332047	1078.711245204984	570.997309527452	663.400917000428	1041.265018640457	466.800729551073	632.703654140195	948.163530018667	410.232207260514	699.820018638640	1019.425472979449	329.261041028978	645.157240204980	902.474656376326	104.506606807726	610.348300184137	960.067879861995	72.121049956819	700.388639321784	1068.571047843825	135.598481199115	709.445637546906	1167.810672969280	90.366096263253	734.598144125549	
90	16.122071428571	1039.608852359712	1016.212462909464	552.540868390522	1077.068467961250	962.969998294263	316.133964942857	1143.180579183573	1450.015845286182	420.799937216391	1009.050345663470	1526.381116453470	554.786994633679	1032.328318544948	1574.967994148792	367.973034976070	1136.485857293159	1506.889008654608	214.911483065006	1144.528995209375	1178.571436225218	95.090149066919	1300.574049123669	942.220431044965	154.401037609737	874.125046368332	1219.517767731465	682.659318555502	1084.878506147507	1019.606867167821	666.602801962763	1089.762305430052	749.323216221810	317.861106085676	1017.144465982097	678.847905498149	276.958849386925	1086.679535904459	622.240965528099	344.400609349504	1085.086518085576	506.206780513673	354.397258731410	1035.753642035484	403.440655154803	375.885255476968	971.397421468617	333.710576426883	300.522923198012	1003.414790382218	282.407459932334	390.407706047588	867.671245348515	49.871070836485	398.382950559634	958.734451467382	27.403423908446	340.831969559597	1054.773744950670	88.953892703673	388.659747678939	1161.273098807629	44.706951689010	398.582249843341	1064.189559321452	795.675914275232	608.785652659184	982.118339984558	722.284273671507	664.199166522514	1075.681628650025	666.689779303824	612.032522160210	1082.757304218655	573.512121338396	662.676356684225	1048.413770581134	468.949771728730	632.833059535992	957.616634471775	409.915412318426	701.048543820435	1031.122990377118	330.901608254461	646.384338775617	921.017913826698	102.151878993752	614.366671068025	980.673119788240	71.789078224568	703.794557659369	1087.100854241671	139.083048065021	711.332968708462	1188.182049261553	97.252811671998	735.355207621572	
91	16.139285714286	1037.225608941768	1016.985499241939	551.913085219594	1073.833026857943	962.764447960386	315.617772612802	1139.755840023442	1449.566975105174	419.755169533973	1006.340763894803	1526.460959719589	553.928265198363	1028.815943560614	1574.565585155815	366.882308710228	1132.710416670685	1505.907583747129	213.841537993509	1142.768965559432	1177.022800350587	95.776306427780	1300.695458185493	942.240027000663	156.295725950968	872.956614101487	1219.610733034267	683.299808835368	1083.297869670476	1019.518738897316	664.212409821520	1085.743596360275	748.468088255534	319.002020899394	1012.852756412982	678.058699307030	277.803343222326	1081.436529594214	621.305104674374	345.699664615297	1079.080444679056	505.566837897242	355.952948024273	1029.510057308215	402.976109898356	377.288780633176	965.623620061485	333.273438219562	301.146152680398	996.591452174348	282.058839521643	391.665146172359	859.873053656131	50.023469614435	398.411933862035	950.908344817318	27.532944278070	340.987846769103	1046.906291661350	88.808955971463	388.991081201330	1153.515546336486	44.556874413350	398.584736131044	1064.286015352135	797.330745615419	608.302193271578	984.707035402039	722.867366732559	664.433091594045	1079.007281311679	668.933271955027	611.373370320582	1088.452813610320	576.264789575244	662.205888660798	1056.372577946737	471.199369074670	632.960868732810	967.538081771525	410.309755266737	702.210200714217	1042.384360705518	332.872396254020	647.091742112904	937.183098432792	101.599562192368	617.215965968451	998.567652219431	72.612244669362	705.980181660917	1103.404142637014	142.610742051703	712.062590045917	1205.822937105579	103.206741472390	734.809162301340	
92	16.156500000000	1034.791294226487	1017.686434121111	551.225332950348	1070.510002046328	962.588014208436	315.078547560305	1136.032821244481	1449.063268569568	419.012553507188	1003.183784324767	1526.440220071420	553.291380541970	1025.039854533160	1574.120359527839	366.075842831871	1128.797313062492	1504.958087893333	213.115533001893	1140.498355762739	1175.544227296647	96.658946429689	1300.019943149708	942.130254569055	158.238549298869	871.703324079253	1219.429070630226	684.062611872608	1082.139475385336	1019.730938957203	662.283333703323	1081.644178520769	747.604755936216	320.287509340403	1008.653261227255	677.274397654549	278.544114260671	1076.144598273880	620.372884256436	347.088087177270	1073.079012102807	504.870600034454	357.530938381591	1023.263212498598	402.443535801793	378.689042634233	959.830535073351	332.780574746142	301.796688452704	989.739228019762	281.641077134849	392.919962964942	852.066884266667	50.168689088736	398.452436489316	943.073857111885	27.658892982547	341.143526325099	1039.008228247253	88.649247621724	389.342443024351	1145.743684074289	44.436909922151	398.580371465171	1065.590321509889	799.518819191176	608.158530387022	988.568588045096	723.661679288535	664.802889486396	1083.804968195368	671.629821276901	611.088186989678	1095.524870275986	579.270540219800	662.008687312354	1064.907073466908	473.511501870495	633.092230142013	977.655560744165	411.296355404115	703.257344189678	1053.037645213589	335.033100764485	647.301187305323	950.870334024580	102.438748613196	618.829083768922	1013.656426821157	74.238739889485	706.923266670219	1117.411356512610	145.941391469122	711.723666204339	1220.739764381856	108.031608164191	733.159400486062	
